<?xml version="1.0" standalone="no"?>
<!DOCTYPE svg PUBLIC "-//W3C//DTD SVG 20010904//EN"
 "http://www.w3.org/TR/2001/REC-SVG-20010904/DTD/svg10.dtd">
<svg version="1.0" xmlns="http://www.w3.org/2000/svg"
 width="394.000000pt" height="394.000000pt" viewBox="0 0 394.000000 394.000000"
 preserveAspectRatio="xMidYMid meet">
<metadata>
Created by potrace 1.11, written by Peter Selinger 2001-2013
</metadata>
<g transform="translate(0.000000,394.000000) scale(0.100000,-0.100000)"
fill="#000000" stroke="none">
<path d="M1184 3638 c-3 -4 -10 -6 -15 -3 -5 4 -9 1 -9 -6 0 -7 -3 -10 -6 -6
-3 3 -16 -3 -28 -14 -11 -11 -42 -36 -67 -56 -35 -27 -46 -41 -44 -59 1 -13
-4 -25 -12 -28 -8 -3 -11 -10 -8 -16 3 -5 1 -10 -4 -10 -6 0 -11 -7 -11 -15 0
-8 4 -15 8 -15 5 0 7 -16 6 -35 -2 -20 1 -33 6 -30 4 3 14 -8 22 -25 7 -16 16
-30 20 -30 4 0 5 -9 3 -20 -2 -11 -1 -20 3 -20 4 0 8 -8 9 -17 3 -37 12 -84
20 -96 4 -6 8 -18 9 -25 4 -21 78 -141 86 -136 3 2 8 -1 10 -7 2 -6 23 -11 47
-12 27 -2 46 -8 49 -16 3 -8 0 -11 -5 -8 -22 14 -122 -101 -108 -123 3 -5 3
-10 -2 -10 -4 0 -9 -28 -10 -62 -3 -81 -20 -143 -53 -193 -50 -76 -79 -132
-72 -140 4 -5 2 -5 -4 -2 -11 6 -29 -19 -26 -35 1 -5 -4 -7 -11 -5 -6 1 -11
-4 -10 -10 2 -7 -2 -12 -8 -10 -6 1 -16 -7 -22 -17 -7 -11 -22 -31 -34 -45
-12 -13 -20 -28 -17 -33 3 -4 0 -8 -5 -8 -6 0 -11 -6 -11 -14 0 -8 -3 -16 -8
-18 -14 -6 -82 -145 -74 -153 4 -5 1 -5 -5 -1 -7 4 -13 2 -13 -3 0 -18 -3 -26
-17 -39 -7 -7 -13 -20 -13 -28 0 -8 -5 -14 -11 -14 -6 0 -8 -7 -5 -16 3 -8 2
-12 -4 -9 -6 3 -10 -1 -10 -9 0 -9 -4 -16 -10 -16 -5 0 -10 -7 -10 -15 0 -8
-4 -15 -9 -15 -8 0 -24 -37 -22 -52 1 -5 -3 -8 -7 -8 -8 0 -35 -46 -36 -63 -1
-4 -5 -11 -11 -15 -20 -14 -56 -73 -50 -82 3 -6 2 -10 -4 -10 -14 0 -43 -58
-36 -70 3 -6 1 -10 -6 -10 -7 0 -10 -3 -7 -6 4 -3 2 -20 -4 -37 -13 -44 -19
-125 -9 -131 5 -3 7 -17 6 -31 -4 -31 9 -40 28 -21 8 8 17 13 21 11 3 -3 4 -2
1 2 -3 3 2 17 11 31 11 17 12 22 3 16 -12 -7 -12 -5 -1 9 9 10 11 24 6 39 -11
33 -11 51 3 66 14 14 27 16 18 3 -7 -13 8 -21 23 -12 14 8 45 81 35 81 -4 0 2
7 14 15 26 18 53 71 52 100 -2 46 14 73 75 133 35 34 61 62 57 62 -3 0 8 9 24
20 17 11 26 20 22 20 -5 0 12 18 37 39 25 21 42 42 39 45 -4 3 -1 6 5 6 17 0
93 76 84 84 -4 4 0 6 8 4 8 -2 14 3 12 10 -1 8 2 11 7 8 5 -3 16 5 25 19 9 14
14 25 11 25 -4 0 1 7 9 16 9 8 14 20 11 25 -4 5 -1 9 5 9 6 0 14 10 19 23 5
12 28 47 52 77 72 90 90 120 83 132 -4 6 -3 8 3 5 10 -6 38 40 35 56 -1 4 1 7
6 7 4 0 21 29 37 65 22 47 37 67 57 74 15 5 30 6 33 2 4 -8 54 -23 80 -25 6
-1 19 -9 29 -18 10 -10 23 -15 28 -12 4 3 8 0 8 -5 0 -6 4 -11 10 -11 9 0 36
-19 66 -48 8 -7 14 -10 14 -6 0 4 8 1 18 -7 31 -25 63 -40 72 -34 6 4 10 1 10
-5 0 -7 7 -9 16 -6 10 4 13 2 8 -6 -5 -7 -2 -9 7 -6 9 4 14 -2 15 -18 1 -13
-2 -24 -6 -24 -8 0 -23 -38 -21 -52 1 -5 -7 -9 -17 -9 -18 -1 -34 -4 -42 -8
-3 -2 -14 -4 -25 -6 -27 -5 -60 -13 -60 -15 0 -2 -37 -9 -62 -12 -7 -1 -13 -5
-13 -9 0 -5 -6 -6 -14 -3 -8 3 -17 0 -21 -5 -3 -6 -11 -9 -16 -6 -5 4 -9 1 -9
-4 0 -6 -3 -10 -7 -9 -14 3 -78 -14 -90 -24 -7 -6 -13 -7 -13 -4 0 4 -19 -6
-42 -22 -24 -16 -46 -29 -50 -28 -4 0 -16 -7 -28 -16 -11 -10 -20 -15 -20 -12
0 9 -26 -20 -37 -41 -19 -36 1 -125 28 -125 6 0 7 -4 4 -10 -3 -5 -2 -10 2
-10 5 0 9 -10 10 -22 1 -11 8 -25 15 -29 7 -5 9 -9 3 -9 -5 0 -4 -5 2 -11 14
-14 8 -34 -24 -77 -13 -17 -21 -37 -18 -42 3 -6 1 -10 -5 -10 -6 0 -8 -4 -5
-10 3 -5 1 -10 -6 -10 -7 0 -9 -3 -6 -7 4 -3 1 -16 -6 -27 -12 -18 -26 -60
-28 -83 0 -5 -6 -14 -12 -22 -9 -11 -9 -13 0 -8 6 4 13 1 16 -5 4 -13 53 71
49 85 -1 4 3 7 9 7 5 0 8 3 6 8 -5 9 29 42 37 35 7 -7 -4 -63 -17 -88 -16 -30
-16 -103 -1 -109 12 -5 25 14 30 44 4 19 12 53 14 60 1 3 2 8 1 13 0 4 4 7 10
7 6 0 8 7 5 16 -4 10 -1 14 6 11 8 -2 12 -16 10 -33 -6 -54 -5 -104 2 -111 11
-12 28 14 30 46 2 36 20 38 21 2 0 -13 6 -26 13 -29 11 -3 16 10 13 31 -2 16
18 6 24 -13 3 -11 11 -20 16 -20 6 0 7 -5 3 -11 -3 -6 -3 -14 2 -18 5 -3 23
-33 39 -66 17 -33 33 -62 38 -63 4 -2 5 -7 2 -12 -3 -5 2 -16 11 -24 8 -9 13
-16 9 -16 -3 0 1 -13 9 -29 9 -16 12 -31 9 -35 -4 -3 -2 -6 3 -6 11 0 12 -9
14 -95 2 -81 -5 -121 -27 -153 -9 -15 -18 -31 -18 -37 0 -5 -6 -10 -13 -10 -8
0 -20 -9 -28 -20 -8 -11 -18 -20 -22 -20 -4 0 -6 -3 -4 -8 1 -4 -1 -6 -5 -5
-15 3 -62 -25 -57 -33 3 -5 -3 -6 -12 -2 -10 4 -15 2 -11 -4 3 -5 0 -10 -7
-10 -22 0 -76 -25 -76 -35 0 -5 -3 -7 -7 -5 -12 8 -93 -39 -85 -48 4 -5 1 -5
-7 0 -9 5 -19 2 -27 -9 -7 -10 -15 -17 -18 -17 -19 2 -28 -2 -57 -27 -18 -15
-34 -26 -36 -24 -9 7 -23 1 -18 -8 4 -6 3 -9 -2 -8 -18 5 -53 -14 -47 -25 4
-7 4 -9 0 -5 -10 8 -86 -30 -86 -43 0 -5 -3 -8 -7 -7 -14 4 -53 -13 -53 -23 0
-5 -3 -8 -7 -8 -22 4 -33 -2 -27 -13 5 -7 2 -9 -8 -5 -9 3 -24 -2 -35 -11 -10
-9 -25 -18 -33 -20 -8 -2 -17 -7 -20 -10 -3 -4 -12 -8 -20 -10 -8 -2 -16 -8
-18 -13 -2 -5 -11 -9 -19 -9 -9 0 -22 -8 -30 -17 -8 -10 -12 -12 -8 -6 4 8 -6
6 -24 -4 -16 -10 -28 -20 -25 -24 2 -4 -2 -6 -9 -6 -11 1 -125 -51 -137 -63
-3 -3 -14 -7 -25 -8 -11 -2 -22 -8 -23 -13 -2 -5 -7 -7 -11 -5 -4 3 -30 -1
-57 -8 -27 -7 -89 -12 -137 -11 -48 1 -90 -2 -93 -7 -8 -12 8 -28 32 -33 11
-2 19 -4 19 -5 0 -6 71 -14 125 -13 67 1 170 13 190 23 6 3 9 3 68 15 23 4 45
11 47 15 3 5 14 6 24 3 10 -3 22 0 25 6 4 5 13 8 20 5 8 -3 17 -1 20 5 4 6 13
8 21 5 8 -3 20 -2 27 2 6 4 21 9 32 10 12 1 37 5 56 9 19 4 41 7 48 7 6 1 12
5 12 9 0 5 7 6 15 3 8 -4 23 -3 32 1 10 5 27 9 38 11 33 4 76 14 135 30 30 8
66 17 80 20 14 3 29 9 34 14 5 5 15 6 22 3 8 -3 14 -1 14 4 0 5 6 10 13 11 14
1 51 10 55 12 1 2 7 4 12 5 6 1 11 3 13 4 1 2 13 5 27 7 47 9 140 47 134 55
-3 5 2 6 10 3 9 -3 16 -1 16 5 0 6 7 11 15 11 8 0 15 5 15 11 0 5 4 8 9 4 6
-3 13 0 18 7 4 7 25 22 45 32 21 10 35 23 32 28 -3 5 -2 7 3 6 17 -6 73 25 66
36 -3 6 -3 8 2 4 4 -4 14 -3 22 3 7 6 13 8 13 4 0 -5 9 0 21 11 12 10 23 18
25 17 11 -7 24 -2 19 7 -4 6 -3 9 2 8 13 -4 100 42 126 66 13 12 26 22 30 24
4 1 14 5 22 8 8 3 12 11 8 17 -3 5 -2 7 4 4 5 -3 21 4 36 16 14 12 41 33 59
47 18 14 40 33 49 42 10 9 27 22 39 28 11 6 17 16 14 22 -4 6 -3 8 4 4 6 -3
18 4 26 16 9 12 16 19 16 14 0 -5 7 -3 15 4 8 7 12 17 8 23 -3 5 -1 7 4 4 13
-8 55 27 45 38 -4 5 -2 6 4 2 5 -3 23 5 40 19 16 14 23 22 15 18 -9 -5 -12 -3
-7 5 4 6 11 9 16 6 4 -3 23 9 41 26 18 16 41 35 51 40 10 6 16 14 13 20 -4 5
-1 8 7 7 7 -2 12 3 10 10 -1 8 2 11 7 8 5 -3 19 6 31 21 12 16 18 21 14 13 -7
-13 -5 -13 9 -1 9 7 14 17 11 22 -3 5 0 8 8 7 7 -2 12 3 10 10 -1 6 1 11 6 10
13 -5 112 84 105 95 -3 6 -2 7 4 4 13 -8 56 37 46 47 -5 4 -1 6 7 4 8 -2 14 3
12 10 -1 8 2 11 6 8 5 -3 35 21 66 53 31 33 56 58 56 55 0 -2 9 4 19 13 11 9
17 21 14 26 -3 6 -1 7 4 4 6 -4 19 3 29 16 19 21 19 21 -1 7 -17 -12 -18 -12
-7 0 7 8 17 15 22 15 19 0 320 280 320 297 0 4 13 21 30 39 16 18 27 36 24 41
-3 4 0 8 5 8 6 0 10 3 9 8 -1 4 4 20 10 35 7 16 10 40 8 54 -5 27 -35 55 -50
46 -5 -4 -6 -1 -2 6 4 6 1 14 -7 17 -15 5 -12 50 4 60 5 3 9 13 9 23 0 10 7
24 15 31 9 7 14 19 11 27 -3 7 -1 13 4 13 6 0 9 3 8 8 0 4 3 16 7 27 5 11 9
49 9 85 1 58 -1 65 -19 65 -11 0 -28 -14 -40 -32 -33 -53 -41 -47 -39 26 3
106 -43 145 -82 69 -18 -34 -21 -33 -28 6 -3 15 -10 34 -17 42 -6 8 -8 14 -5
14 4 0 -8 21 -26 46 -53 74 -121 121 -189 130 -20 2 -29 -3 -38 -22 -14 -32
-14 -54 1 -54 6 0 9 -3 5 -6 -3 -3 -2 -17 3 -30 10 -26 -3 -29 -28 -6 -8 7
-18 10 -23 7 -5 -4 -9 -1 -9 5 0 7 -7 9 -16 6 -8 -3 -12 -2 -9 4 3 6 0 10 -7
11 -7 0 -22 3 -33 6 -11 3 -47 6 -81 6 -47 1 -67 -4 -91 -21 -47 -33 -62 -92
-33 -127 26 -31 59 -10 40 24 -7 13 -7 22 0 26 6 4 8 10 6 14 -3 4 14 7 38 7
24 -1 42 -4 39 -8 -4 -8 12 -12 30 -9 5 1 6 -2 4 -6 -3 -5 7 -17 21 -27 16
-12 23 -14 18 -5 -4 8 0 5 9 -6 9 -11 21 -19 26 -17 6 1 8 -1 5 -6 -7 -11 40
-53 49 -44 4 4 6 3 4 -3 -2 -9 14 -56 25 -74 3 -3 -11 -6 -29 -5 -18 1 -37 -1
-42 -5 -14 -9 -24 -41 -12 -41 6 0 8 -4 5 -8 -3 -5 6 -21 20 -38 14 -16 22
-23 18 -15 -4 7 6 4 23 -8 16 -12 39 -23 50 -24 12 0 19 -5 17 -9 -4 -7 6 -9
31 -8 3 1 13 -6 21 -15 9 -8 19 -13 23 -11 4 3 15 -6 25 -19 10 -14 23 -22 28
-19 4 3 8 2 6 -3 -1 -4 2 -23 6 -40 9 -38 -2 -65 -16 -40 -12 23 -72 32 -108
17 -17 -7 -31 -15 -31 -19 -10 -48 7 -77 49 -86 42 -8 97 -46 85 -59 -4 -3 -2
-6 3 -6 10 0 9 -73 -1 -107 -4 -12 -6 -24 -4 -26 2 -2 -4 -11 -14 -21 -9 -10
-14 -23 -10 -29 3 -7 3 -9 0 -6 -4 3 -35 -22 -69 -56 -35 -33 -84 -74 -110
-90 -26 -16 -44 -33 -41 -39 3 -5 1 -6 -5 -2 -6 3 -22 -4 -35 -16 -14 -13 -34
-29 -46 -37 -11 -8 -17 -19 -14 -24 3 -6 1 -7 -5 -3 -6 3 -17 -2 -24 -12 -7
-11 -17 -21 -23 -23 -5 -2 -9 -7 -7 -12 1 -4 -1 -6 -5 -5 -14 2 -43 -14 -38
-21 2 -4 -1 -9 -8 -10 -28 -4 -174 -2 -202 3 -51 10 -70 14 -70 17 0 1 -34 8
-62 11 -7 1 -13 4 -13 8 0 4 -13 6 -29 5 -23 -1 -29 2 -28 17 1 10 7 18 15 18
7 0 10 5 6 12 -4 6 -3 8 3 5 6 -4 16 0 23 8 7 8 16 12 21 9 5 -3 9 0 9 6 0 6
5 8 10 5 6 -3 13 1 16 9 3 9 10 13 15 10 5 -3 9 0 9 5 0 6 6 11 13 11 8 0 32
18 55 39 22 21 43 36 47 33 3 -3 8 4 12 16 3 12 9 20 13 17 5 -3 15 3 22 13 7
10 24 26 38 35 13 9 21 17 17 17 -4 0 9 16 29 35 22 21 33 40 28 47 -4 7 -4
10 1 6 9 -9 57 51 50 63 -3 4 -1 9 5 11 13 4 22 56 23 133 1 86 -18 211 -34
221 -5 3 -7 9 -4 14 8 13 -14 52 -26 45 -5 -4 -9 1 -9 9 0 9 -5 16 -11 16 -5
0 -8 4 -5 9 3 5 -5 20 -19 35 -13 15 -24 29 -24 32 1 3 -8 17 -20 30 -12 13
-21 26 -21 29 0 7 -49 73 -79 107 -13 15 -29 25 -34 21 -6 -3 -7 -1 -3 5 6 11
-10 27 -29 27 -5 0 -10 7 -10 15 -1 8 -6 14 -13 13 -7 -2 -11 3 -9 9 1 7 -8
14 -21 16 -12 2 -20 7 -17 12 3 5 -4 14 -15 20 -11 6 -20 7 -20 3 0 -4 -7 2
-15 13 -8 10 -15 15 -15 11 0 -5 -7 -1 -16 7 -8 9 -22 16 -30 16 -8 0 -14 5
-14 11 0 6 -7 8 -17 5 -10 -4 -14 -4 -10 0 10 11 -142 86 -155 78 -7 -4 -8 -2
-4 5 5 7 -3 13 -23 17 -17 4 -31 11 -31 16 0 6 -7 8 -15 4 -8 -3 -15 -2 -15 2
0 9 -81 48 -92 44 -5 -1 -8 3 -8 8 0 6 -6 10 -14 10 -8 0 -16 4 -18 10 -1 5
-12 11 -23 13 -11 2 -29 8 -40 13 -26 11 -156 9 -164 -3 -9 -13 -72 -9 -101 7
-14 7 -27 13 -30 12 -3 -1 -5 2 -5 7 0 5 -3 13 -7 16 -4 4 -3 16 3 26 5 11 8
19 5 19 -3 0 -1 12 3 28 5 15 4 38 -2 52 -11 28 -15 44 -19 80 -3 29 -32 77
-62 103 -12 10 -14 16 -6 12 8 -3 2 5 -14 19 -17 13 -32 24 -35 24 -3 0 -8 1
-11 2 -5 2 -42 7 -113 13 -21 2 -40 0 -43 -5z m676 -2113 c60 -16 91 -19 190
-18 97 0 171 5 278 18 25 3 42 1 42 -5 0 -6 11 -8 25 -6 14 3 25 1 25 -4 0 -5
6 -7 14 -4 11 4 13 0 9 -16 -3 -11 -8 -18 -11 -15 -3 3 -14 -2 -24 -12 -10 -9
-18 -12 -18 -8 0 5 -12 -2 -27 -16 -14 -13 -23 -18 -19 -11 7 11 4 11 -13 0
-12 -7 -21 -16 -21 -21 0 -4 -4 -5 -10 -2 -5 3 -10 1 -10 -4 0 -6 -9 -11 -20
-11 -11 0 -20 -3 -20 -8 0 -4 -9 -13 -21 -20 -17 -11 -20 -11 -13 0 4 7 -5 2
-21 -12 -16 -14 -25 -18 -21 -10 6 11 4 11 -6 -1 -7 -9 -23 -19 -36 -23 -12
-4 -22 -11 -22 -16 0 -4 -7 -11 -16 -14 -10 -4 -13 -2 -9 7 4 6 -1 3 -9 -7 -9
-11 -16 -16 -16 -10 0 5 -3 5 -8 -1 -13 -18 -47 -42 -38 -27 7 11 4 12 -13 3
-11 -7 -21 -16 -21 -22 0 -6 -4 -7 -10 -4 -5 3 -10 1 -10 -5 0 -6 -4 -9 -9 -6
-5 3 -11 -1 -15 -9 -7 -19 -35 -19 -60 0 -11 8 -16 15 -12 15 4 0 0 7 -8 16
-9 8 -14 20 -11 25 4 5 1 9 -5 9 -6 0 -8 5 -5 10 3 6 2 10 -3 10 -5 0 -9 6 -9
13 0 6 -4 26 -7 42 -4 17 -9 39 -11 50 -2 11 -6 30 -9 43 -28 109 -29 103 7
98 18 -2 43 -7 57 -11z"/>
<path d="M2774 3126 c-15 -12 -16 -17 -7 -27 14 -14 153 -22 153 -10 0 13 -36
42 -43 34 -4 -3 -7 -2 -7 4 0 15 -74 14 -96 -1z"/>
<path d="M3327 2908 c-5 -18 4 -48 15 -48 5 0 6 -4 3 -10 -3 -5 -1 -10 4 -10
12 0 12 1 16 40 3 33 -28 56 -38 28z"/>
<path d="M3424 2788 c3 -13 5 -25 6 -28 0 -3 5 3 11 13 10 18 5 37 -12 37 -5
0 -7 -10 -5 -22z"/>
<path d="M3522 2503 c-5 -10 -8 -25 -6 -33 2 -8 6 -28 9 -44 3 -16 10 -37 15
-46 5 -9 7 -33 4 -53 -5 -42 7 -48 29 -14 8 12 29 37 46 55 17 18 31 39 31 47
0 20 -20 29 -33 16 -23 -23 -37 -12 -35 29 1 45 1 45 -29 54 -15 5 -24 2 -31
-11z"/>
<path d="M2900 2195 c-21 -25 -3 -29 32 -6 l33 21 -26 0 c-15 0 -32 -7 -39
-15z"/>
</g>
</svg>
